<svg xmlns="http://www.w3.org/2000/svg" width="97" height="63" xml:space="preserve"> <path
        style="stroke:none;stroke-width:1;stroke-dasharray:none;stroke-linecap:butt;stroke-dashoffset:0;stroke-linejoin:miter;stroke-miterlimit:4;fill:none;fill-rule:nonzero;opacity:1"
        transform="translate(.82 .82)" d="M93.109.856v57.612H2.891V.856H.856v59.645h94.288V.856z"></path>
    <path style="stroke:none;stroke-width:1;stroke-dasharray:none;stroke-linecap:butt;stroke-dashoffset:0;stroke-linejoin:miter;stroke-miterlimit:4;fill:#000;fill-rule:nonzero;opacity:1"
          transform="translate(.82 .82)"
          d="M95.144.856v59.645H.856V.856H2.89v57.612h90.219V.856h2.035M96 0h-3.746v57.611H3.747V0H0v61.357h96V0z"></path>
    <path style="stroke:none;stroke-width:1;stroke-dasharray:none;stroke-linecap:butt;stroke-dashoffset:0;stroke-linejoin:miter;stroke-miterlimit:4;fill:#000;fill-rule:nonzero;opacity:1"
          transform="translate(.82 4.82)"
          d="M20.731 5.888h2.138v12.75h4.746v2.2h-6.884V5.888zm9.239 0h2.159v14.95H29.97V5.888zm9.934-.107c4.318 0 4.874 3.417 4.874 7.582 0 2.413-.193 4.57-1.24 5.98.299.47.834.854 1.967.854v2.114c-2.159 0-3.078-.833-3.613-1.709-.577.256-1.218.342-1.988.342-4.318 0-4.853-3.417-4.853-7.582s.534-7.581 4.853-7.581zm0 13.049c.321 0 .577-.021.855-.107-.278-.171-.748-.278-1.347-.278V16.31c1.432 0 2.33.342 2.843.812.342-.94.363-2.2.363-3.759 0-3.31-.299-5.467-2.715-5.467-2.458 0-2.694 2.157-2.694 5.467.001 3.332.236 5.467 2.695 5.467zm9.93-12.942v10.593c0 1.58.641 2.349 2.287 2.349 1.667 0 2.351-.769 2.351-2.349V5.888h2.159v10.593c0 3.161-1.774 4.464-4.511 4.464s-4.447-1.303-4.447-4.464V5.888h2.161zm9.772 0h2.159v14.95h-2.159V5.888zm5.252 0h4.254c4.233 0 4.895 3.332 4.895 7.475s-.663 7.475-4.895 7.475h-4.254V5.888zm2.16 12.857h2.095c2.373-.085 2.736-2.072 2.736-5.382 0-3.268-.364-5.361-2.736-5.361h-2.095v10.743zm-49.275 7.649h2.038l5.018 9.877v-9.877h2.145v14.998H24.95l-5.04-9.855v9.855h-2.166l-.001-14.998zm14.861 0h2.209l4.289 14.998h-2.23l-.751-2.785h-4.825l-.751 2.785h-2.23l4.289-14.998zm-.73 10.091h3.667c-.386-1.35-.815-2.721-1.844-6.32l-1.823 6.32zm6.647-10.091h8.128v2.121h-2.981v12.876h-2.166V28.515h-2.981v-2.121zm11.987 0V37.02c0 1.585.644 2.357 2.295 2.357 1.673 0 2.359-.771 2.359-2.357V26.394h2.166V37.02c0 3.171-1.78 4.478-4.525 4.478s-4.461-1.307-4.461-4.478V26.394h2.166zm9.135 0h3.474c4.246 0 4.911 2.871 4.911 5.121 0 1.693-.386 3.728-2.445 4.649l2.831 5.228h-2.423l-2.595-4.756h-1.587v4.756h-2.166V26.394zm2.166 8.098h1.308c2.402-.086 2.745-1.307 2.745-2.978 0-1.65-.343-2.999-2.745-2.999h-1.308v5.977zm8.406-8.098h7.056v2.121h-4.89v4.649h4.075v2.121h-4.075v3.985h5.04v2.121h-7.206V26.394z"></path> </svg>